<?xml version="1.0" encoding="utf-8"?>
<!-- Generator: Adobe Illustrator 22.1.0, SVG Export Plug-In . SVG Version: 6.00 Build 0)  -->
<svg version="1.1" xmlns="http://www.w3.org/2000/svg" xmlns:xlink="http://www.w3.org/1999/xlink" x="0px" y="0px"
	 viewBox="0 0 500 110" style="enable-background:new 0 0 500 110;" xml:space="preserve">
<style type="text/css">
	.st0{fill:#FFFFFF;}
	.st1{fill:#0093EE;}
	.st2{fill:none;}
	.st3{fill:#283D8C;}
	.st4{clip-path:url(#SVGID_2_);fill:#DCF5FF;}
	.st5{clip-path:url(#SVGID_2_);}
	.st6{fill:#0099FF;}
	.st7{fill:#E4E5E6;}
	.st8{clip-path:url(#SVGID_2_);fill:#0093EE;}
	.st9{fill:none;stroke:#0093EE;stroke-width:7;stroke-miterlimit:10;}
	.st10{fill:none;stroke:#0093EE;stroke-width:7;stroke-linejoin:round;stroke-miterlimit:10;}
	.st11{clip-path:url(#SVGID_2_);fill:none;stroke:#0093EE;stroke-width:9;stroke-miterlimit:10;}
	.st12{fill:#3424AE;}
	.st13{clip-path:url(#SVGID_2_);fill:#FFFFFF;}
	.st14{clip-path:url(#SVGID_2_);fill:none;stroke:#0099FF;stroke-width:3;stroke-linecap:round;stroke-miterlimit:10;}
	.st15{clip-path:url(#SVGID_2_);fill:none;stroke:#0093EE;stroke-width:6;stroke-miterlimit:10;}
	.st16{clip-path:url(#SVGID_2_);fill:none;}
	.st17{clip-path:url(#SVGID_2_);fill:none;stroke:#0093EE;stroke-width:7;stroke-miterlimit:10;}
	
		.st18{clip-path:url(#SVGID_2_);fill:none;stroke:#0093EE;stroke-width:7;stroke-linecap:round;stroke-linejoin:round;stroke-miterlimit:10;}
	.st19{clip-path:url(#SVGID_2_);fill:#2E398A;}
	.st20{clip-path:url(#SVGID_2_);fill:#283D8C;}
	.st21{fill:#2E398A;}
	.st22{fill:#63C4FF;}
	.st23{clip-path:url(#SVGID_2_);fill:#63C4FF;}
	.st24{clip-path:url(#SVGID_2_);fill:#2E2F90;}
</style>
<g id="Grid">
</g>
<g id="Fonts">
</g>
<g id="Logo">
	<g>
		<g>
			<path class="st1" d="M246.9,24.5c1-0.7,2.1-1,3.4-1c1.6,0,2.9,0.5,4,1.5c1.1,1,1.7,2.3,1.7,4c0,0.8-0.2,1.7-0.5,2.7l-16.8,46.1
				c-0.5,1.3-1.3,2.3-2.6,3c-1.2,0.7-2.5,1.1-4,1.1c-1.5,0-2.8-0.4-4-1.1c-1.2-0.7-2-1.7-2.5-3l-12.1-34.1l-12.4,34.1
				c-0.5,1.3-1.3,2.3-2.5,3c-1.2,0.7-2.5,1.1-4,1.1c-1.4,0-2.7-0.4-3.9-1.1c-1.2-0.7-2.1-1.7-2.5-3l-16.8-46.1
				c-0.3-0.9-0.5-1.8-0.5-2.6c0-1.7,0.6-3,1.8-4c1.2-1,2.6-1.5,4.2-1.5c1.3,0,2.5,0.3,3.5,1c1.1,0.7,1.8,1.7,2.3,3l12.5,35.9
				l13-35.7c0.5-1.3,1.3-2.3,2.3-3c1.1-0.7,2.2-1.1,3.4-1.1c1.2,0,2.4,0.4,3.4,1.1c1,0.7,1.8,1.7,2.3,3.1l12.4,36.3l12.9-36.5
				C245.2,26.1,245.9,25.2,246.9,24.5z"/>
			<path class="st1" d="M292.9,70.6c0.7,0.9,1,2,1,3.3c0,0.9-0.3,1.8-0.8,2.5c-0.5,0.8-1.3,1.4-2.3,2c-1.8,1-4,1.8-6.4,2.4
				c-2.4,0.6-4.7,0.9-6.7,0.9c-4.3,0-8.1-0.8-11.3-2.5c-3.2-1.7-5.7-4.1-7.4-7.2c-1.7-3.1-2.6-6.8-2.6-11c0-4,0.8-7.6,2.5-10.8
				c1.7-3.1,4-5.6,7-7.3c3-1.8,6.3-2.6,10.1-2.6c3.6,0,6.8,0.8,9.5,2.4c2.7,1.6,4.8,3.9,6.4,6.8c1.5,2.9,2.3,6.4,2.3,10.3
				c0,1.2-0.3,2.1-0.9,2.7c-0.6,0.6-1.4,0.9-2.4,0.9h-22.7c0.4,3.2,1.3,5.5,2.9,6.9s3.8,2.1,6.7,2.1c1.6,0,3-0.2,4.2-0.6
				c1.2-0.4,2.6-0.9,4.1-1.5c0.8-0.3,1.5-0.6,2.2-0.9c0.7-0.2,1.3-0.4,1.9-0.4C291.3,69.3,292.2,69.7,292.9,70.6z M270.7,51
				c-1.4,1.5-2.2,3.6-2.5,6.4h15.6c-0.2-2.9-0.9-5-2.1-6.5c-1.3-1.5-3.1-2.2-5.4-2.2S272.1,49.5,270.7,51z"/>
			<path class="st1" d="M304.2,79.9c-1.1-1.1-1.7-2.7-1.7-4.6V29.9c0-1.9,0.5-3.3,1.5-4.4c1-1,2.5-1.5,4.4-1.5h20.3
				c6.2,0,11,1.6,14.5,4.7c3.5,3.1,5.2,7.5,5.2,13.1c0,5.6-1.7,10-5.2,13.1c-3.5,3.1-8.3,4.7-14.5,4.7h-13.6v15.6
				c0,1.9-0.6,3.5-1.7,4.6c-1.1,1.1-2.7,1.7-4.6,1.7C306.8,81.6,305.3,81,304.2,79.9z M327.1,50.1c6.3,0,9.5-2.7,9.5-8.2
				c0-5.5-3.2-8.3-9.5-8.3h-12v16.4H327.1z"/>
			<path class="st1" d="M385.2,44.6c2.8,2.8,4.2,7.2,4.2,13v18.3c0,1.8-0.5,3.2-1.5,4.2s-2.5,1.5-4.3,1.5c-1.7,0-3.1-0.5-4.2-1.6
				c-1.1-1.1-1.6-2.4-1.6-4.1v-0.6c-0.8,2-2.2,3.6-4,4.7c-1.9,1.1-4.1,1.7-6.6,1.7c-2.7,0-5.1-0.5-7.3-1.6c-2.2-1.1-3.9-2.6-5.2-4.5
				c-1.3-1.9-1.9-4.1-1.9-6.5c0-2.9,0.7-5.2,2.2-6.9c1.5-1.7,3.9-2.9,7.2-3.6c3.3-0.8,7.8-1.1,13.5-1.1h2.1V56
				c0-2.3-0.5-3.9-1.5-4.9c-1-1-2.7-1.5-5-1.5c-2.3,0-5.7,0.8-10,2.4c-1.2,0.6-2.3,0.9-3.2,0.9c-1.2,0-2.1-0.4-2.8-1.3
				c-0.7-0.8-1.1-1.9-1.1-3.3c0-1.1,0.2-2,0.7-2.7c0.5-0.7,1.3-1.3,2.3-1.9c1.9-1,4.2-1.8,6.9-2.4c2.7-0.6,5.4-0.9,8.1-0.9
				C378.1,40.4,382.4,41.8,385.2,44.6z M375.6,71c1.5-1.6,2.2-3.7,2.2-6.2v-1.4h-1.4c-4.4,0-7.4,0.4-9.2,1.1c-1.8,0.7-2.6,2-2.6,3.8
				c0,1.5,0.5,2.7,1.5,3.7c1,0.9,2.3,1.4,3.8,1.4C372.2,73.3,374.1,72.5,375.6,71z"/>
			<path class="st1" d="M427.8,41.5c0.9-0.5,1.8-0.8,2.9-0.8c1.6,0,2.9,0.5,4.1,1.5c1.2,1,1.8,2.2,1.8,3.6c0,0.8-0.2,1.5-0.6,2.3
				l-21.8,44.7c-0.5,1.1-1.3,2-2.2,2.5c-0.9,0.6-1.9,0.9-2.9,0.9c-1.5,0-2.8-0.5-4-1.5c-1.1-1-1.7-2.2-1.7-3.6
				c0-0.9,0.2-1.7,0.6-2.4l5.3-11.1l-14.4-29.6c-0.3-0.8-0.5-1.5-0.5-2.2c0-1.5,0.6-2.7,1.9-3.7c1.3-1,2.7-1.5,4.3-1.5
				c1.1,0,2.1,0.3,3,0.9c0.9,0.6,1.6,1.4,2.2,2.5l10,21.9l9.8-21.9C426.2,42.9,426.9,42.1,427.8,41.5z"/>
			<path class="st1" d="M448.7,75.6c-4.2-4.1-6.3-10.2-6.3-18.1V29.9c0-1.9,0.6-3.4,1.7-4.5s2.6-1.7,4.5-1.7c1.9,0,3.4,0.6,4.5,1.7
				c1.1,1.1,1.7,2.6,1.7,4.5v28.3c0,4.5,1,8,3.1,10.4c2.1,2.4,5.1,3.6,9,3.6c3.9,0,7-1.2,9.1-3.6c2.1-2.4,3.2-5.8,3.2-10.3V29.9
				c0-1.9,0.6-3.4,1.7-4.5c1.1-1.1,2.6-1.7,4.5-1.7c1.9,0,3.4,0.6,4.5,1.7s1.7,2.6,1.7,4.5v27.7c0,7.9-2.1,13.9-6.3,18.1
				c-4.2,4.2-10.3,6.2-18.3,6.2C459,81.8,452.9,79.8,448.7,75.6z"/>
		</g>
		<g>
			<path class="st2" d="M23.2,102.1c-0.2-0.1-0.4-0.1-0.6-0.2C22.9,102,23.1,102,23.2,102.1z"/>
			<path class="st2" d="M22.3,101.7c-0.2-0.1-0.3-0.2-0.5-0.3C21.9,101.5,22.1,101.6,22.3,101.7z"/>
			<path class="st2" d="M17.8,97.6c-0.1-0.2-0.2-0.3-0.3-0.5C17.6,97.3,17.7,97.4,17.8,97.6z"/>
			<path class="st2" d="M21.4,101.2c-0.2-0.1-0.3-0.2-0.5-0.3C21.1,101,21.2,101.1,21.4,101.2z"/>
			<path class="st2" d="M19,99.2c-0.1-0.1-0.2-0.3-0.4-0.4C18.8,99,18.9,99.1,19,99.2z"/>
			<path class="st2" d="M18.4,98.4c-0.1-0.1-0.2-0.3-0.3-0.4C18.2,98.2,18.3,98.3,18.4,98.4z"/>
			<path class="st2" d="M20.5,100.6c-0.1-0.1-0.3-0.2-0.4-0.3C20.2,100.4,20.4,100.5,20.5,100.6z"/>
			<path class="st2" d="M105.3,33.1c0.6,1.4,0.8,3,0.4,4.7l-4.8,18.6l0,0l4.8-18.6C106.1,36.2,105.9,34.6,105.3,33.1z"/>
			<path class="st2" d="M103.2,30.4c-0.4-0.3-0.9-0.6-1.4-0.9C102.3,29.7,102.8,30,103.2,30.4z"/>
			<path class="st2" d="M24.3,102.4c-0.2-0.1-0.4-0.1-0.6-0.2C23.9,102.3,24.1,102.3,24.3,102.4z"/>
			<path class="st2" d="M25.4,102.6c-0.2,0-0.5-0.1-0.7-0.1C24.9,102.5,25.1,102.6,25.4,102.6z"/>
			<path class="st2" d="M26.8,102.7c-0.4,0-0.7,0-1.1-0.1C26.1,102.7,26.4,102.7,26.8,102.7z"/>
			<path class="st2" d="M19.7,100c-0.1-0.1-0.3-0.2-0.4-0.4C19.5,99.7,19.6,99.8,19.7,100z"/>
			<path class="st2" d="M16.5,90.6c0-0.3,0.1-0.5,0.1-0.8C16.5,90.1,16.5,90.4,16.5,90.6z"/>
			<path class="st2" d="M27.2,81.8h-0.4c-5,0-9.1,3.4-10.2,8.1C17.8,85.1,22.2,81.8,27.2,81.8z"/>
			<polygon class="st2" points="98.6,65.1 94.4,81.8 98.6,65.1 			"/>
			<path class="st2" d="M17.3,96.7c-0.1-0.2-0.2-0.3-0.2-0.5C17.2,96.4,17.3,96.5,17.3,96.7z"/>
			<path class="st2" d="M16.4,91.6c0-0.2,0-0.4,0-0.6C16.4,91.2,16.4,91.4,16.4,91.6z"/>
			<path class="st2" d="M16.9,95.7c-0.1-0.2-0.1-0.3-0.2-0.5C16.8,95.4,16.9,95.6,16.9,95.7z"/>
			<path class="st2" d="M16.6,94.7c0-0.2-0.1-0.4-0.1-0.5C16.6,94.4,16.6,94.6,16.6,94.7z"/>
			<path class="st2" d="M16.3,92.2c0,0.1,0,0.3,0,0.4c0-0.2,0-0.4,0-0.6C16.3,92.1,16.3,92.2,16.3,92.2z"/>
			<path class="st2" d="M16.4,93.7c0-0.2-0.1-0.4-0.1-0.5C16.4,93.3,16.4,93.5,16.4,93.7z"/>
			<path class="st1" d="M16.6,89.8C16.6,89.8,16.6,89.8,16.6,89.8c-0.1,0.3-0.1,0.5-0.2,0.8c0,0.1,0,0.2-0.1,0.4c0,0.2,0,0.4,0,0.6
				c0,0.2,0,0.3,0,0.5c0,0.2,0,0.4,0,0.6c0,0.2,0,0.4,0,0.5c0,0.2,0,0.4,0.1,0.5c0,0.2,0,0.3,0.1,0.5c0,0.2,0.1,0.4,0.1,0.5
				c0,0.2,0.1,0.3,0.1,0.5c0.1,0.2,0.1,0.3,0.2,0.5c0.1,0.2,0.1,0.3,0.2,0.5c0.1,0.2,0.1,0.3,0.2,0.5c0.1,0.1,0.1,0.3,0.2,0.4
				c0.1,0.2,0.2,0.3,0.3,0.5c0.1,0.1,0.2,0.3,0.3,0.4c0.1,0.1,0.2,0.3,0.3,0.4c0.1,0.1,0.2,0.3,0.3,0.4c0.1,0.1,0.2,0.3,0.4,0.4
				c0.1,0.1,0.2,0.2,0.3,0.4c0.1,0.1,0.3,0.2,0.4,0.4c0.1,0.1,0.2,0.2,0.3,0.3c0.1,0.1,0.3,0.2,0.4,0.3c0.1,0.1,0.2,0.2,0.4,0.3
				c0.2,0.1,0.3,0.2,0.5,0.3c0.1,0.1,0.3,0.2,0.4,0.2c0.2,0.1,0.3,0.2,0.5,0.3c0.1,0.1,0.3,0.1,0.4,0.2c0.2,0.1,0.4,0.1,0.6,0.2
				c0.1,0.1,0.3,0.1,0.4,0.2c0.2,0.1,0.4,0.1,0.6,0.2c0.1,0,0.3,0.1,0.4,0.1c0.2,0,0.5,0.1,0.7,0.1c0.1,0,0.2,0,0.4,0.1
				c0.4,0,0.7,0.1,1.1,0.1h-0.1l0,0h53c5.4,0,10.2-3.7,11.6-9l3.1-12H27.2C22.2,81.8,17.8,85.1,16.6,89.8z"/>
			<path class="st1" d="M94.4,81.8h1.9h26.3c5.1,0,9.5-3.4,10.7-8.3l2.1-8.3H98.6L94.4,81.8z"/>
			<path class="st1" d="M28.7,28.7h69.9c1.2,0,2.3,0.3,3.3,0.8c0.5,0.2,0.9,0.5,1.4,0.9c0.4,0.3,0.8,0.7,1.1,1.2
				c0.4,0.5,0.7,1,0.9,1.6c0.6,1.4,0.8,3,0.4,4.7l-4.8,18.6h36.8l9.6-37.3c1.4-5.5-2.7-10.8-8.4-10.8h-101c-5.9,0-11.1,4-12.6,9.8
				L21,34.7C21.9,31.2,25.1,28.7,28.7,28.7z"/>
			<path class="st3" d="M13.2,65.1L8.9,81.8c-2.7,10.6,5.3,21,16.3,21h1.5h0.1c-0.4,0-0.7,0-1.1-0.1c-0.1,0-0.2,0-0.4-0.1
				c-0.2,0-0.5-0.1-0.7-0.1c-0.1,0-0.3-0.1-0.4-0.1c-0.2-0.1-0.4-0.1-0.6-0.2c-0.1,0-0.3-0.1-0.4-0.2c-0.2-0.1-0.4-0.1-0.6-0.2
				c-0.1-0.1-0.3-0.1-0.4-0.2c-0.2-0.1-0.3-0.2-0.5-0.3c-0.1-0.1-0.3-0.2-0.4-0.2c-0.2-0.1-0.3-0.2-0.5-0.3
				c-0.1-0.1-0.3-0.2-0.4-0.3c-0.1-0.1-0.3-0.2-0.4-0.3c-0.1-0.1-0.2-0.2-0.3-0.3c-0.1-0.1-0.3-0.2-0.4-0.4
				c-0.1-0.1-0.2-0.2-0.3-0.4c-0.1-0.1-0.2-0.3-0.4-0.4c-0.1-0.1-0.2-0.3-0.3-0.4c-0.1-0.1-0.2-0.3-0.3-0.4
				c-0.1-0.1-0.2-0.3-0.3-0.4c-0.1-0.2-0.2-0.3-0.3-0.5c-0.1-0.1-0.1-0.3-0.2-0.4c-0.1-0.2-0.2-0.3-0.2-0.5
				c-0.1-0.2-0.1-0.3-0.2-0.5c-0.1-0.2-0.1-0.3-0.2-0.5c0-0.2-0.1-0.3-0.1-0.5c0-0.2-0.1-0.3-0.1-0.5c0-0.2-0.1-0.3-0.1-0.5
				c0-0.2-0.1-0.4-0.1-0.5c0-0.2,0-0.3,0-0.5c0-0.1,0-0.3,0-0.4c0-0.1,0-0.1,0-0.2c0-0.2,0-0.3,0-0.5c0-0.2,0-0.4,0-0.6
				c0-0.1,0-0.2,0.1-0.4c0-0.3,0.1-0.5,0.1-0.8c0,0,0,0,0,0c1.1-4.6,5.2-8.1,10.2-8.1h0.4h67.1l4.3-16.6H13.2z"/>
			<path class="st3" d="M105.6,37.8c0.4-1.6,0.2-3.3-0.4-4.7c-0.2-0.6-0.6-1.1-0.9-1.6c-0.3-0.4-0.7-0.8-1.1-1.2
				c-0.4-0.3-0.9-0.6-1.4-0.9c-1-0.5-2.1-0.8-3.3-0.8H28.7c-3.6,0-6.8,2.4-7.7,5.9l-0.2,0.8l-5.4,20.9h85.4L105.6,37.8z"/>
		</g>
	</g>
	<g>
		<defs>
			<rect id="SVGID_1_" x="1224.9" y="-611.8" width="38.7" height="38.7"/>
		</defs>
		<clipPath id="SVGID_2_">
			<use xlink:href="#SVGID_1_"  style="overflow:visible;"/>
		</clipPath>
	</g>
</g>
</svg>
