<?xml version="1.0" encoding="utf-8"?>
<!-- Generator: Adobe Illustrator 17.0.0, SVG Export Plug-In . SVG Version: 6.00 Build 0)  -->
<!DOCTYPE svg PUBLIC "-//W3C//DTD SVG 1.1//EN" "http://www.w3.org/Graphics/SVG/1.1/DTD/svg11.dtd">

<svg width="174px" height="119px" viewBox="0 0 174 119" version="1.1" xmlns="http://www.w3.org/2000/svg" xmlns:xlink="http://www.w3.org/1999/xlink">
    <!-- Generator: Sketch 51.3 (57544) - http://www.bohemiancoding.com/sketch -->
    <desc>Created with Sketch.</desc>
    <defs></defs>
    <g id="Page-1" stroke="none" stroke-width="1" fill="none" fill-rule="evenodd">
        <g id="logo">
            <g id="Group">
                <path d="M18.8914286,117.625 C18.6428571,117.5 18.3942857,117.5 18.1457143,117.375 C18.5185714,117.5 18.7671429,117.5 18.8914286,117.625 Z" id="Shape"></path>
                <path d="M17.7728571,117.125 C17.5242857,117 17.4,116.875 17.1514286,116.75 C17.2757143,116.875 17.5242857,117 17.7728571,117.125 Z" id="Shape"></path>
                <path d="M12.18,112 C12.0557143,111.75 11.9314286,111.625 11.8071429,111.375 C11.9314286,111.625 12.0557143,111.75 12.18,112 Z" id="Shape"></path>
                <path d="M16.6542857,116.5 C16.4057143,116.375 16.2814286,116.25 16.0328571,116.125 C16.2814286,116.25 16.4057143,116.375 16.6542857,116.5 Z" id="Shape"></path>
                <path d="M13.6714286,114 C13.5471429,113.875 13.4228571,113.625 13.1742857,113.5 C13.4228571,113.75 13.5471429,113.875 13.6714286,114 Z" id="Shape"></path>
                <path d="M12.9257143,113 C12.8014286,112.875 12.6771429,112.625 12.5528571,112.5 C12.6771429,112.75 12.8014286,112.875 12.9257143,113 Z" id="Shape"></path>
                <path d="M15.5357143,115.75 C15.4114286,115.625 15.1628571,115.5 15.0385714,115.375 C15.1628571,115.5 15.4114286,115.625 15.5357143,115.75 Z" id="Shape"></path>
                <path d="M120.93,31.375 C121.675714,33.125 121.924286,35.125 121.427143,37.25 L115.461429,60.5 L121.427143,37.25 C121.924286,35.25 121.675714,33.25 120.93,31.375 Z" id="Shape"></path>
                <path d="M118.32,28 C117.822857,27.625 117.201429,27.25 116.58,26.875 C117.201429,27.125 117.822857,27.5 118.32,28 Z" id="Shape"></path>
                <path d="M20.2585714,118 C20.01,117.875 19.7614286,117.875 19.5128571,117.75 C19.7614286,117.875 20.01,117.875 20.2585714,118 Z" id="Shape"></path>
                <path d="M21.6257143,118.25 C21.3771429,118.25 21.0042857,118.125 20.7557143,118.125 C21.0042857,118.125 21.2528571,118.25 21.6257143,118.25 Z" id="Shape"></path>
                <path d="M23.3657143,118.375 C22.8685714,118.375 22.4957143,118.375 21.9985714,118.25 C22.4957143,118.375 22.8685714,118.375 23.3657143,118.375 Z" id="Shape"></path>
                <path d="M14.5414286,115 C14.4171429,114.875 14.1685714,114.75 14.0442857,114.5 C14.2928571,114.625 14.4171429,114.75 14.5414286,115 Z" id="Shape"></path>
                <path d="M10.5642857,103.25 C10.5642857,102.875 10.6885714,102.625 10.6885714,102.25 C10.5642857,102.625 10.5642857,103 10.5642857,103.25 Z" id="Shape"></path>
                <path d="M23.8628571,92.25 L23.3657143,92.25 C17.1514286,92.25 12.0557143,96.5 10.6885714,102.375 C12.18,96.375 17.6485714,92.25 23.8628571,92.25 Z" id="Shape"></path>
                <polygon id="Shape" points="112.602857 71.375 107.382857 92.25"></polygon>
                <path d="M11.5585714,110.875 C11.4342857,110.625 11.31,110.5 11.31,110.25 C11.4342857,110.5 11.5585714,110.625 11.5585714,110.875 Z" id="Shape"></path>
                <path d="M10.44,104.5 C10.44,104.25 10.44,104 10.44,103.75 C10.44,104 10.44,104.25 10.44,104.5 Z" id="Shape"></path>
                <path d="M11.0614286,109.625 C10.9371429,109.375 10.9371429,109.25 10.8128571,109 C10.9371429,109.25 11.0614286,109.5 11.0614286,109.625 Z" id="Shape"></path>
                <path d="M10.6885714,108.375 C10.6885714,108.125 10.5642857,107.875 10.5642857,107.75 C10.6885714,108 10.6885714,108.25 10.6885714,108.375 Z" id="Shape"></path>
                <path d="M10.3157143,105.25 C10.3157143,105.375 10.3157143,105.625 10.3157143,105.75 C10.3157143,105.5 10.3157143,105.25 10.3157143,105 C10.3157143,105.125 10.3157143,105.25 10.3157143,105.25 Z" id="Shape"></path>
                <path d="M10.44,107.125 C10.44,106.875 10.3157143,106.625 10.3157143,106.5 C10.44,106.625 10.44,106.875 10.44,107.125 Z" id="Shape"></path>
                <path d="M10.6885714,102.25 C10.6885714,102.25 10.6885714,102.25 10.6885714,102.25 C10.5642857,102.625 10.5642857,102.875 10.44,103.25 C10.44,103.375 10.44,103.5 10.3157143,103.75 C10.3157143,104 10.3157143,104.25 10.3157143,104.5 C10.3157143,104.75 10.3157143,104.875 10.3157143,105.125 C10.3157143,105.375 10.3157143,105.625 10.3157143,105.875 C10.3157143,106.125 10.3157143,106.375 10.3157143,106.5 C10.3157143,106.75 10.3157143,107 10.44,107.125 C10.44,107.375 10.44,107.5 10.5642857,107.75 C10.5642857,108 10.6885714,108.25 10.6885714,108.375 C10.6885714,108.625 10.8128571,108.75 10.8128571,109 C10.9371429,109.25 10.9371429,109.375 11.0614286,109.625 C11.1857143,109.875 11.1857143,110 11.31,110.25 C11.4342857,110.5 11.4342857,110.625 11.5585714,110.875 C11.6828571,111 11.6828571,111.25 11.8071429,111.375 C11.9314286,111.625 12.0557143,111.75 12.18,112 C12.3042857,112.125 12.4285714,112.375 12.5528571,112.5 C12.6771429,112.625 12.8014286,112.875 12.9257143,113 C13.05,113.125 13.1742857,113.375 13.2985714,113.5 C13.4228571,113.625 13.5471429,113.875 13.7957143,114 C13.92,114.125 14.0442857,114.25 14.1685714,114.5 C14.2928571,114.625 14.5414286,114.75 14.6657143,115 C14.79,115.125 14.9142857,115.25 15.0385714,115.375 C15.1628571,115.5 15.4114286,115.625 15.5357143,115.75 C15.66,115.875 15.7842857,116 16.0328571,116.125 C16.2814286,116.25 16.4057143,116.375 16.6542857,116.5 C16.7785714,116.625 17.0271429,116.75 17.1514286,116.75 C17.4,116.875 17.5242857,117 17.7728571,117.125 C17.8971429,117.25 18.1457143,117.25 18.27,117.375 C18.5185714,117.5 18.7671429,117.5 19.0157143,117.625 C19.14,117.75 19.3885714,117.75 19.5128571,117.875 C19.7614286,118 20.01,118 20.2585714,118.125 C20.3828571,118.125 20.6314286,118.25 20.7557143,118.25 C21.0042857,118.25 21.3771429,118.375 21.6257143,118.375 C21.75,118.375 21.8742857,118.375 22.1228571,118.5 C22.62,118.5 22.9928571,118.625 23.49,118.625 L23.3657143,118.625 L89.2371429,118.625 C95.9485714,118.625 101.914286,114 103.654286,107.375 L107.507143,92.375 L23.8628571,92.375 C17.6485714,92.25 12.18,96.375 10.6885714,102.25 Z" id="Shape" fill="#0093EE" fill-rule="nonzero"></path>
                <path d="M107.382857,92.25 L109.744286,92.25 L142.431429,92.25 C148.77,92.25 154.238571,88 155.73,81.875 L158.34,71.5 L112.602857,71.5 L107.382857,92.25 Z" id="Shape" fill="#0093EE" fill-rule="nonzero"></path>
                <path d="M25.7271429,25.875 L112.602857,25.875 C114.094286,25.875 115.461429,26.25 116.704286,26.875 C117.325714,27.125 117.822857,27.5 118.444286,28 C118.941429,28.375 119.438571,28.875 119.811429,29.5 C120.308571,30.125 120.681429,30.75 120.93,31.5 C121.675714,33.25 121.924286,35.25 121.427143,37.375 L115.461429,60.625 L161.198571,60.625 L173.13,14 C174.87,7.125 169.774286,0.5 162.69,0.5 L37.1614286,0.5 C29.8285714,0.5 23.3657143,5.5 21.5014286,12.75 L16.1571429,33.375 C17.2757143,29 21.2528571,25.875 25.7271429,25.875 Z" id="Shape" fill="#0093EE" fill-rule="nonzero"></path>
                <path d="M6.46285714,71.375 L1.11857143,92.25 C-2.23714286,105.5 7.70571429,118.5 21.3771429,118.5 L23.2414286,118.5 L23.3657143,118.5 C22.8685714,118.5 22.4957143,118.5 21.9985714,118.375 C21.8742857,118.375 21.75,118.375 21.5014286,118.25 C21.2528571,118.25 20.88,118.125 20.6314286,118.125 C20.5071429,118.125 20.2585714,118 20.1342857,118 C19.8857143,117.875 19.6371429,117.875 19.3885714,117.75 C19.2642857,117.75 19.0157143,117.625 18.8914286,117.5 C18.6428571,117.375 18.3942857,117.375 18.1457143,117.25 C18.0214286,117.125 17.7728571,117.125 17.6485714,117 C17.4,116.875 17.2757143,116.75 17.0271429,116.625 C16.9028571,116.5 16.6542857,116.375 16.53,116.375 C16.2814286,116.25 16.1571429,116.125 15.9085714,116 C15.7842857,115.875 15.5357143,115.75 15.4114286,115.625 C15.2871429,115.5 15.0385714,115.375 14.9142857,115.25 C14.79,115.125 14.6657143,115 14.5414286,114.875 C14.4171429,114.75 14.1685714,114.625 14.0442857,114.375 C13.92,114.25 13.7957143,114.125 13.6714286,113.875 C13.5471429,113.75 13.4228571,113.5 13.1742857,113.375 C13.05,113.25 12.9257143,113 12.8014286,112.875 C12.6771429,112.75 12.5528571,112.5 12.4285714,112.375 C12.3042857,112.25 12.18,112 12.0557143,111.875 C11.9314286,111.625 11.8071429,111.5 11.6828571,111.25 C11.5585714,111.125 11.5585714,110.875 11.4342857,110.75 C11.31,110.5 11.1857143,110.375 11.1857143,110.125 C11.0614286,109.875 11.0614286,109.75 10.9371429,109.5 C10.8128571,109.25 10.8128571,109.125 10.6885714,108.875 C10.6885714,108.625 10.5642857,108.5 10.5642857,108.25 C10.5642857,108 10.44,107.875 10.44,107.625 C10.44,107.375 10.3157143,107.25 10.3157143,107 C10.3157143,106.75 10.1914286,106.5 10.1914286,106.375 C10.1914286,106.125 10.1914286,106 10.1914286,105.75 C10.1914286,105.625 10.1914286,105.375 10.1914286,105.25 C10.1914286,105.125 10.1914286,105.125 10.1914286,105 C10.1914286,104.75 10.1914286,104.625 10.1914286,104.375 C10.1914286,104.125 10.1914286,103.875 10.1914286,103.625 C10.1914286,103.5 10.1914286,103.375 10.3157143,103.125 C10.3157143,102.75 10.44,102.5 10.44,102.125 C10.44,102.125 10.44,102.125 10.44,102.125 C11.8071429,96.375 16.9028571,92 23.1171429,92 L23.6142857,92 L107.01,92 L112.354286,71.25 L6.46285714,71.25 L6.46285714,71.375 Z" id="Shape" fill="#283D8C" fill-rule="nonzero"></path>
                <path d="M121.302857,37.25 C121.8,35.25 121.551429,33.125 120.805714,31.375 C120.557143,30.625 120.06,30 119.687143,29.375 C119.314286,28.875 118.817143,28.375 118.32,27.875 C117.822857,27.5 117.201429,27.125 116.58,26.75 C115.337143,26.125 113.97,25.75 112.478571,25.75 L25.7271429,25.75 C21.2528571,25.75 17.2757143,28.75 16.1571429,33.125 L15.9085714,34.125 L9.19714286,60.25 L115.337143,60.25 L121.302857,37.25 Z" id="Shape" fill="#283D8C" fill-rule="nonzero"></path>
            </g>
        </g>
    </g>
</svg>
